<svg width="180" height="81" viewBox="0 0 180 81" fill="none" xmlns="http://www.w3.org/2000/svg">
<circle cx="89" cy="39" r="39" fill="#FFBABE"/>
<path d="M66.1289 47.7487C63.5762 31.0948 75.0073 15.5235 91.6613 12.9708C108.315 10.418 123.886 21.8479 126.439 38.5031C128.992 55.1571 117.561 70.7283 100.907 73.2811C84.2529 75.8351 68.6829 64.4039 66.1289 47.7487Z" fill="#CF4048"/>
<path d="M96.2183 74.2715C89.6415 74.2715 83.2578 72.1919 77.8571 68.2259C71.1516 63.3047 66.7666 56.0654 65.506 47.8445C64.2454 39.6235 66.2619 31.4038 71.1844 24.6983C76.1056 17.994 83.3449 13.6078 91.5646 12.3472C108.543 9.73899 124.461 21.4351 127.063 38.4071C128.324 46.628 126.306 54.8478 121.385 61.5532C116.462 68.2575 109.223 72.645 101.003 73.9055C99.4058 74.1503 97.8057 74.2715 96.2183 74.2715ZM96.3041 13.2469C94.8038 13.2469 93.2845 13.3605 91.7577 13.594C75.4734 16.0912 64.2568 31.3684 66.754 47.6527C69.25 63.9356 84.5335 75.1535 100.811 72.6563C117.096 70.1591 128.314 54.8806 125.816 38.5963C123.554 23.8427 110.795 13.2469 96.3041 13.2469Z" fill="#CF4048"/>
<path d="M123.871 46.4971C127.256 29.9918 116.62 13.8675 100.114 10.4825C83.609 7.09758 67.4847 17.7337 64.0997 34.239C60.7148 50.7443 71.3509 66.8686 87.8562 70.2535C104.362 73.6385 120.486 63.0024 123.871 46.4971Z" fill="#E8565E"/>
<path d="M89.8008 49.2483H98.4432V57.5248H89.8008V49.2483ZM89.985 23.0371H98.2981V46.3638H89.985V23.0371Z" fill="#F8F7F5"/>
<path d="M98.4433 58.1558H89.8008C89.4526 58.1558 89.1699 57.8732 89.1699 57.5249V49.2484C89.1699 48.9001 89.4526 48.6175 89.8008 48.6175H98.4433C98.7916 48.6175 99.0742 48.9001 99.0742 49.2484V57.5249C99.0742 57.8732 98.7916 58.1558 98.4433 58.1558ZM90.4318 56.894H97.8124V49.8793H90.4318V56.894ZM98.2994 46.9947H89.9851C89.6368 46.9947 89.3541 46.7121 89.3541 46.3638V23.0372C89.3541 22.6889 89.6368 22.4062 89.9851 22.4062H98.2994C98.6477 22.4062 98.9303 22.6889 98.9303 23.0372V46.3638C98.9303 46.7121 98.6477 46.9947 98.2994 46.9947ZM90.616 45.7329H97.6685V23.6681H90.616V45.7329Z" fill="white"/>
<path d="M157.4 69.4718C161.621 66.9447 162.994 61.4721 160.467 57.2512C157.94 53.0303 152.468 51.6567 148.247 54.1837C144.026 56.7108 142.652 62.1834 145.179 66.4044C147.706 70.6253 153.177 71.9989 157.4 69.4718Z" fill="#FFD592"/>
<path d="M152.838 71.6497C152.036 71.6497 151.228 71.5514 150.431 71.3495C147.888 70.7109 145.745 69.1208 144.398 66.8702C143.05 64.6197 142.659 61.9798 143.299 59.4345C143.938 56.8911 145.528 54.7479 147.779 53.3997C150.029 52.0498 152.673 51.6604 155.213 52.3008C157.756 52.9394 159.901 54.5295 161.247 56.7801C164.027 61.4267 162.51 67.4688 157.867 70.2488V70.2506C156.321 71.1766 154.592 71.6497 152.838 71.6497ZM152.809 53.8291C151.41 53.8291 149.997 54.1948 148.712 54.9644C146.878 56.0633 145.583 57.808 145.062 59.8821C144.542 61.9543 144.86 64.1048 145.958 65.9387C148.224 69.723 153.142 70.9601 156.93 68.6932C156.93 68.6914 156.93 68.6914 156.93 68.6914C160.714 66.4263 161.952 61.5049 159.686 57.7189C158.189 55.2154 155.531 53.8291 152.809 53.8291Z" fill="#313149"/>
<path d="M178.168 24.227C178.526 22.797 177.658 21.3469 176.228 20.9885C174.798 20.6301 173.348 21.4979 172.99 22.9279C172.632 24.358 173.499 25.808 174.929 26.1664C176.359 26.5248 177.809 25.657 178.168 24.227Z" fill="#313149"/>
<path d="M175.587 27.1575C175.294 27.1575 174.999 27.1211 174.708 27.0483C173.78 26.8154 173.001 26.2369 172.51 25.4163C172.019 24.5958 171.875 23.6352 172.108 22.7073C172.341 21.7795 172.921 20.999 173.742 20.5096C174.562 20.0183 175.519 19.8764 176.451 20.1093C177.379 20.3422 178.157 20.9207 178.648 21.7412C179.142 22.5618 179.283 23.5224 179.051 24.4503C178.818 25.3763 178.241 26.1568 177.419 26.6481C176.858 26.9846 176.227 27.1575 175.587 27.1575ZM175.576 21.8177C175.261 21.8177 174.952 21.9014 174.675 22.0687C174.271 22.3089 173.987 22.6928 173.873 23.1494C173.758 23.6043 173.827 24.0791 174.069 24.4812C174.311 24.8833 174.695 25.1689 175.152 25.2835C175.605 25.3945 176.08 25.3272 176.483 25.087C176.886 24.8451 177.169 24.463 177.284 24.0082C177.284 24.0063 177.284 24.0064 177.284 24.0064C177.399 23.5497 177.329 23.0766 177.087 22.6746C176.845 22.2725 176.462 21.9869 176.005 21.8722C175.865 21.8359 175.721 21.8177 175.576 21.8177Z" fill="#313149"/>
<path d="M140.389 9.15613C141.173 6.03411 139.277 2.86843 136.155 2.08611C133.033 1.30196 129.867 3.19773 129.085 6.31974C128.301 9.44175 130.197 12.6074 133.319 13.3898C136.439 14.1721 139.605 12.2781 140.389 9.15613Z" fill="#E8565E"/>
<path d="M134.749 14.4781C134.198 14.4781 133.645 14.4108 133.097 14.2725C129.495 13.3683 127.297 9.70049 128.203 6.09817C129.109 2.49402 132.773 0.298058 136.377 1.2041C139.978 2.1065 142.178 5.77431 141.273 9.37846C140.835 11.1232 139.743 12.5951 138.2 13.5193C137.138 14.1524 135.954 14.4781 134.749 14.4781ZM134.736 2.81969C132.535 2.81969 130.526 4.31155 129.968 6.54027C129.648 7.81563 129.844 9.13648 130.519 10.2645C131.192 11.3925 132.267 12.1894 133.541 12.5078C136.17 13.1664 138.846 11.5635 139.507 8.93453C140.165 6.30374 138.562 3.62747 135.932 2.96704C135.531 2.86698 135.129 2.81969 134.736 2.81969ZM140.389 9.15651H140.407H140.389Z" fill="#313149"/>
<path d="M18.3728 22.8388C14.8091 24.9725 13.6493 29.593 15.7829 33.1567C17.9166 36.7204 22.5371 37.8802 26.1008 35.7466C29.6645 33.6129 30.8243 28.9924 28.6907 25.4287C26.557 21.865 21.9381 20.7052 18.3728 22.8388Z" fill="#FFD592"/>
<path d="M22.2239 21.0001C22.9013 21.0001 23.5833 21.083 24.2561 21.2535C26.4036 21.7927 28.2131 23.1352 29.3498 25.0354C30.488 26.9355 30.8183 29.1644 30.2776 31.3133C29.7384 33.4608 28.3959 35.2703 26.4957 36.4085C24.5956 37.5483 22.3637 37.8771 20.2193 37.3363C18.0718 36.7972 16.2608 35.4546 15.1241 33.5545C12.7769 29.6313 14.058 24.53 17.9781 22.1829L17.9781 22.1813C19.2838 21.3995 20.7431 21.0001 22.2239 21.0001ZM22.2484 36.046C23.4297 36.046 24.6232 35.7373 25.7077 35.0875C27.2561 34.1597 28.3498 32.6866 28.7891 30.9355C29.2284 29.1859 28.9596 27.3702 28.0334 25.8218C26.1194 22.6268 21.9674 21.5823 18.7692 23.4962C18.7692 23.4978 18.7692 23.4977 18.7692 23.4977C15.5742 25.4102 14.5296 29.5653 16.442 32.7619C17.7062 34.8755 19.9504 36.046 22.2484 36.046Z" fill="#313149"/>
<path d="M0.837429 61.0391C0.534821 62.2465 1.26755 63.4707 2.47491 63.7734C3.68228 64.076 4.90653 63.3432 5.20914 62.1359C5.51175 60.9285 4.77907 59.7042 3.57171 59.4016C2.36434 59.099 1.14004 59.8317 0.837429 61.0391Z" fill="#313149"/>
<path d="M3.01695 58.5648C3.26426 58.5648 3.51311 58.5956 3.75889 58.657C4.54229 58.8536 5.19975 59.3421 5.61449 60.0349C6.02923 60.7277 6.1506 61.5387 5.95398 62.3221C5.75736 63.1055 5.26733 63.7645 4.57456 64.1777C3.88178 64.5924 3.07378 64.7122 2.2873 64.5156C1.5039 64.319 0.846489 63.8306 0.431746 63.1378C0.0154664 62.445 -0.104361 61.634 0.0922583 60.8505C0.288877 60.0687 0.775822 59.4097 1.47013 58.9949C1.94325 58.7108 2.47625 58.5648 3.01695 58.5648ZM3.02619 63.0732C3.29193 63.0732 3.55306 63.0026 3.78654 62.8613C4.12755 62.6585 4.3672 62.3344 4.46397 61.9488C4.56074 61.5648 4.50237 61.1639 4.29807 60.8244C4.09377 60.4849 3.76966 60.2438 3.3841 60.147C3.00161 60.0533 2.6007 60.1101 2.25969 60.3129C1.92022 60.5172 1.68058 60.8398 1.58381 61.2238C1.58381 61.2253 1.58381 61.2253 1.58381 61.2253C1.48704 61.6109 1.54541 62.0103 1.74971 62.3498C1.95401 62.6892 2.27813 62.9304 2.66368 63.0272C2.78196 63.0579 2.9033 63.0732 3.02619 63.0732Z" fill="#313149"/>
<path d="M32.7347 73.7635C32.0726 76.3994 33.6732 79.0722 36.3091 79.7327C38.9451 80.3948 41.6178 78.7942 42.2784 76.1582C42.9404 73.5223 41.3398 70.8495 38.7039 70.189C36.0695 69.5285 33.3967 71.1275 32.7347 73.7635Z" fill="#E8565E"/>
<path d="M37.4962 69.2701C37.9616 69.2701 38.4286 69.3269 38.891 69.4436C41.9325 70.2071 43.7881 73.3038 43.0231 76.3453C42.2581 79.3882 39.1644 81.2423 36.1214 80.4773C33.0815 79.7154 31.2244 76.6187 31.9878 73.5757C32.358 72.1026 33.2797 70.8599 34.5823 70.0796C35.4794 69.545 36.4793 69.2701 37.4962 69.2701ZM37.507 79.1133C39.3657 79.1133 41.0615 77.8537 41.5331 75.972C41.8034 74.8952 41.6375 73.78 41.0676 72.8276C40.4993 71.8753 39.5914 71.2025 38.5162 70.9336C36.2965 70.3776 34.037 71.7309 33.4794 73.9505C32.9233 76.1717 34.2766 78.4313 36.4978 78.9889C36.8357 79.0734 37.1752 79.1133 37.507 79.1133ZM32.7344 73.7631L32.719 73.7631L32.7344 73.7631Z" fill="#E8565E"/>
</svg>
