<svg width="28" height="28" viewBox="0 0 28 28" fill="none" xmlns="http://www.w3.org/2000/svg">
<rect width="28" height="28" rx="4" fill="#DEEBFF"/>
<path d="M15.5 6.5H9.5C9.10218 6.5 8.72064 6.65804 8.43934 6.93934C8.15804 7.22064 8 7.60218 8 8V20C8 20.3978 8.15804 20.7794 8.43934 21.0607C8.72064 21.342 9.10218 21.5 9.5 21.5H18.5C18.8978 21.5 19.2794 21.342 19.5607 21.0607C19.842 20.7794 20 20.3978 20 20V11L15.5 6.5Z" stroke="#558BE3" stroke-width="1.5" stroke-linecap="round" stroke-linejoin="round"/>
<path d="M15.5 6.5V11H20" stroke="#558BE3" stroke-width="1.5" stroke-linecap="round" stroke-linejoin="round"/>
<path d="M17 14.75H11" stroke="#558BE3" stroke-width="1.5" stroke-linecap="round" stroke-linejoin="round"/>
<path d="M17 17.75H11" stroke="#558BE3" stroke-width="1.5" stroke-linecap="round" stroke-linejoin="round"/>
<path d="M12.5 11.75H11.75H11" stroke="#558BE3" stroke-width="1.5" stroke-linecap="round" stroke-linejoin="round"/>
</svg>
