<svg width="30" height="30" viewBox="0 0 30 30" fill="none" xmlns="http://www.w3.org/2000/svg">
<path d="M8.86364 14.6317H21.1364C21.277 14.6317 21.392 14.5112 21.392 14.3638V12.7567C21.392 12.6094 21.277 12.4888 21.1364 12.4888H8.86364C8.72301 12.4888 8.60795 12.6094 8.60795 12.7567V14.3638C8.60795 14.5112 8.72301 14.6317 8.86364 14.6317Z" fill="#3374DD"/>
<path d="M25.2273 0H4.77273C4.20703 0 3.75 0.478795 3.75 1.07143V28.9286C3.75 29.5212 4.20703 30 4.77273 30H25.2273C25.793 30 26.25 29.5212 26.25 28.9286V1.07143C26.25 0.478795 25.793 0 25.2273 0ZM23.9489 27.5893H6.05114V20.8594H9.18004C9.55078 21.9576 10.2028 22.9453 11.0689 23.6953C12.1715 24.6496 13.5682 25.1786 15 25.1786C16.4318 25.1786 17.8285 24.6529 18.9311 23.6953C19.7972 22.9453 20.4492 21.9576 20.82 20.8594H23.9489V27.5893ZM23.9489 18.75H19.206L19.0398 19.577C18.6563 21.5792 16.956 23.0357 15 23.0357C13.044 23.0357 11.3437 21.5792 10.957 19.577L10.7908 18.75H6.05114V2.41071H23.9489V18.75Z" fill="#3374DD"/>
<path d="M8.86364 9.27455H21.1364C21.277 9.27455 21.392 9.15402 21.392 9.0067V7.39955C21.392 7.25223 21.277 7.1317 21.1364 7.1317H8.86364C8.72301 7.1317 8.60795 7.25223 8.60795 7.39955V9.0067C8.60795 9.15402 8.72301 9.27455 8.86364 9.27455Z" fill="#3374DD"/>
</svg>
