<svg width="28" height="28" viewBox="0 0 28 28" fill="none" xmlns="http://www.w3.org/2000/svg">
<rect width="28" height="28" rx="4" fill="#E7C5FC"/>
<path d="M17.75 20.75V19.25C17.75 18.4544 17.4339 17.6913 16.8713 17.1287C16.3087 16.5661 15.5456 16.25 14.75 16.25H8.75C7.95435 16.25 7.19129 16.5661 6.62868 17.1287C6.06607 17.6913 5.75 18.4544 5.75 19.25V20.75" stroke="#6E209D" stroke-width="1.5" stroke-linecap="round" stroke-linejoin="round"/>
<path d="M11.75 13.25C13.4069 13.25 14.75 11.9069 14.75 10.25C14.75 8.59315 13.4069 7.25 11.75 7.25C10.0931 7.25 8.75 8.59315 8.75 10.25C8.75 11.9069 10.0931 13.25 11.75 13.25Z" stroke="#6E209D" stroke-width="1.5" stroke-linecap="round" stroke-linejoin="round"/>
<path d="M22.25 20.7499V19.2499C22.2495 18.5852 22.0283 17.9395 21.621 17.4141C21.2138 16.8888 20.6436 16.5136 20 16.3474" stroke="#6E209D" stroke-width="1.5" stroke-linecap="round" stroke-linejoin="round"/>
<path d="M17 7.34741C17.6453 7.51264 18.2173 7.88794 18.6257 8.41414C19.0342 8.94035 19.2559 9.58753 19.2559 10.2537C19.2559 10.9198 19.0342 11.567 18.6257 12.0932C18.2173 12.6194 17.6453 12.9947 17 13.1599" stroke="#6E209D" stroke-width="1.5" stroke-linecap="round" stroke-linejoin="round"/>
</svg>
