<svg width="28" height="28" viewBox="0 0 28 28" fill="none" xmlns="http://www.w3.org/2000/svg">
<rect width="28" height="28" rx="4" fill="#FFDAC6"/>
<path d="M14 5.75V22.25" stroke="#D96425" stroke-width="1.5" stroke-linecap="round" stroke-linejoin="round"/>
<path d="M17.75 8.75H12.125C11.4288 8.75 10.7611 9.02656 10.2688 9.51884C9.77656 10.0111 9.5 10.6788 9.5 11.375C9.5 12.0712 9.77656 12.7389 10.2688 13.2312C10.7611 13.7234 11.4288 14 12.125 14H15.875C16.5712 14 17.2389 14.2766 17.7312 14.7688C18.2234 15.2611 18.5 15.9288 18.5 16.625C18.5 17.3212 18.2234 17.9889 17.7312 18.4812C17.2389 18.9734 16.5712 19.25 15.875 19.25H9.5" stroke="#D96425" stroke-width="1.5" stroke-linecap="round" stroke-linejoin="round"/>
</svg>
