<svg width="20" height="20" viewBox="0 0 20 20" fill="none" xmlns="http://www.w3.org/2000/svg">
<path d="M11.5229 9.28896C11.6016 9.29321 11.6711 9.29983 11.7403 9.30009C12.1286 9.30195 12.5173 9.30274 12.9056 9.30327C13.0331 9.30354 13.0604 9.2667 13.0575 9.14825C13.0518 8.91901 13.0558 8.68978 13.0558 8.44571C13.9562 8.92829 14.8481 9.4061 15.752 9.89053C14.8509 10.3668 13.9585 10.8382 13.0538 11.3165C13.0538 11.281 13.0538 11.2598 13.0538 11.2384C13.0538 11.025 13.0541 10.8114 13.0538 10.5981C13.0538 10.5008 13.034 10.4831 12.9265 10.4831C11.9577 10.4826 10.9886 10.482 10.0198 10.4818C9.89174 10.4818 9.84377 10.5133 9.81103 10.6304C9.72515 10.9368 9.61285 11.2336 9.45947 11.5171C9.06712 12.2425 8.47228 12.7873 7.71516 13.1875C7.13181 13.4957 6.51141 13.7133 5.84649 13.8129C5.48458 13.8672 5.11981 13.8869 4.75217 13.8702C4.03641 13.8378 3.34333 13.7127 2.68847 13.4393C1.76533 13.0539 1.02458 12.4722 0.504994 11.6642C0.247354 11.2635 0.0902429 10.8281 0.0371066 10.3644C0.0144159 10.1648 -0.00511527 9.96314 0.00120364 9.76306C0.0244687 9.04622 0.263726 8.39297 0.727592 7.81605C1.49304 6.86361 2.50924 6.27264 3.77015 6.04023C4.25986 5.95013 4.75475 5.91197 5.25222 5.93582C6.35918 5.98882 7.36446 6.30604 8.23733 6.94841C8.59091 7.20865 8.89163 7.51606 9.15875 7.85183C9.16736 7.86269 9.17483 7.87488 9.18603 7.89105C8.8023 8.09669 8.42231 8.30048 8.04059 8.50507C7.92742 8.38449 7.82057 8.26524 7.70712 8.15155C7.22401 7.66685 6.65129 7.31466 5.9519 7.15406C5.66984 7.0894 5.38262 7.06237 5.09252 7.04806C4.67117 7.02712 4.2567 7.06263 3.85057 7.16519C3.10408 7.35335 2.51067 7.75059 2.03302 8.30526C1.73977 8.64606 1.54761 9.02793 1.47294 9.45857C1.42985 9.70662 1.4333 9.95546 1.47035 10.2035C1.52291 10.5552 1.63464 10.8891 1.82536 11.1989C2.09966 11.6441 2.49143 11.9809 2.96104 12.2454C3.41571 12.5014 3.90687 12.6678 4.43593 12.7187C5.44121 12.8154 6.3767 12.6421 7.19155 12.0594C7.57126 11.7877 7.89468 11.4657 8.09487 11.0568C8.17213 10.8992 8.21148 10.7258 8.26663 10.5591C8.27381 10.5372 8.27123 10.5122 8.27352 10.4812C7.5299 10.4812 6.79145 10.4812 6.04927 10.4812C6.04927 10.0906 6.04927 9.70715 6.04927 9.31652C6.107 9.31255 6.16272 9.30539 6.21873 9.30539C7.43857 9.3046 8.6584 9.3046 9.87824 9.30433C10.0241 9.30433 10.0586 9.27704 10.0911 9.14427C10.2243 8.59517 10.432 8.07311 10.7551 7.59318C11.3106 6.769 12.1039 6.22706 13.094 5.92045C13.5941 5.76568 14.1082 5.67426 14.6344 5.63928C16.1825 5.53672 17.5187 5.98776 18.65 6.96008C19.3066 7.52454 19.7492 8.20853 19.9127 9.0274C20.1804 10.3678 19.836 11.5566 18.833 12.57C18.2841 13.1244 17.6356 13.5455 16.8649 13.7989C16.4186 13.9457 15.9579 14.0244 15.4848 14.0498C15.0526 14.0732 14.6214 14.0668 14.1926 14.0095C13.169 13.8733 12.2622 13.4999 11.4921 12.8584C10.9484 12.4055 10.5555 11.8548 10.2849 11.2286C10.268 11.1893 10.2545 11.1491 10.2399 11.109C10.2378 11.1037 10.2384 11.0976 10.237 11.0839C10.276 11.0817 10.314 11.0778 10.3519 11.0778C10.7818 11.0778 11.2115 11.0788 11.6415 11.0788C11.713 11.0788 11.7693 11.1027 11.8064 11.1591C12.3802 12.0299 13.225 12.5271 14.3038 12.7033C14.9888 12.8152 15.6641 12.7905 16.3192 12.5629C17.0525 12.3082 17.6643 11.9027 18.0937 11.2869C18.3533 10.9145 18.4909 10.5024 18.536 10.0628C18.6225 9.22351 18.2973 8.52654 17.6726 7.93239C17.1545 7.43947 16.5163 7.16307 15.7922 7.03852C15.415 6.97385 15.0342 6.93914 14.653 6.96962C13.4344 7.06687 12.448 7.53461 11.8087 8.53184C11.682 8.72953 11.5826 8.93995 11.5318 9.1668C11.5232 9.20469 11.5258 9.24471 11.5229 9.28896Z" fill="url(#paint0_linear_107_7844)"/>
<defs>
<linearGradient id="paint0_linear_107_7844" x1="0" y1="10" x2="20" y2="10" gradientUnits="userSpaceOnUse">
<stop stop-color="#2674B3"/>
<stop offset="1" stop-color="#10396B"/>
</linearGradient>
</defs>
</svg>
