<svg width="18" height="18" viewBox="0 0 18 18" fill="none" xmlns="http://www.w3.org/2000/svg">
<path d="M6.70513 9.05473C6.70513 7.75604 7.75827 6.70296 9.05774 6.70296C10.3572 6.70296 11.4109 7.75604 11.4109 9.05473C11.4109 10.3534 10.3572 11.4065 9.05774 11.4065C7.75827 11.4065 6.70513 10.3534 6.70513 9.05473ZM5.43305 9.05473C5.43305 11.0554 7.05582 12.6772 9.05774 12.6772C11.0597 12.6772 12.6824 11.0554 12.6824 9.05473C12.6824 7.05401 11.0597 5.43221 9.05774 5.43221C7.05582 5.43221 5.43305 7.05401 5.43305 9.05473ZM11.9789 5.28858C11.9788 5.45601 12.0284 5.61971 12.1214 5.75896C12.2144 5.89821 12.3467 6.00677 12.5015 6.07091C12.6562 6.13505 12.8265 6.15188 12.9909 6.11928C13.1552 6.08668 13.3061 6.00611 13.4247 5.88777C13.5432 5.76942 13.6239 5.61861 13.6567 5.4544C13.6894 5.2902 13.6727 5.11998 13.6087 4.96526C13.5446 4.81054 13.4361 4.67828 13.2968 4.58521C13.1576 4.49213 12.9938 4.44241 12.8263 4.44235H12.8259C12.6014 4.44245 12.386 4.53163 12.2272 4.6903C12.0684 4.84896 11.979 5.06414 11.9789 5.28858ZM6.20592 14.7971C5.5177 14.7658 5.14363 14.6512 4.89504 14.5544C4.56547 14.4262 4.33033 14.2735 4.08309 14.0267C3.83586 13.78 3.68282 13.5452 3.55508 13.2158C3.45818 12.9675 3.34354 12.5935 3.31225 11.9057C3.27803 11.1621 3.2712 10.9387 3.2712 9.05478C3.2712 7.17083 3.2786 6.94807 3.31225 6.20383C3.3436 5.51602 3.45908 5.1428 3.55508 4.89374C3.68339 4.56437 3.8362 4.32936 4.08309 4.08227C4.32999 3.83519 4.56491 3.68224 4.89504 3.55458C5.14352 3.45773 5.5177 3.34316 6.20592 3.3119C6.94999 3.2777 7.17351 3.27087 9.05774 3.27087C10.942 3.27087 11.1657 3.27826 11.9104 3.3119C12.5986 3.34322 12.9721 3.45864 13.2213 3.55458C13.5509 3.68224 13.786 3.83553 14.0332 4.08227C14.2805 4.32902 14.4329 4.56437 14.5612 4.89374C14.6582 5.14206 14.7728 5.51602 14.8041 6.20383C14.8383 6.94807 14.8451 7.17083 14.8451 9.05478C14.8451 10.9387 14.8383 11.1615 14.8041 11.9057C14.7727 12.5935 14.6575 12.9674 14.5612 13.2158C14.4329 13.5452 14.2801 13.7802 14.0332 14.0267C13.7863 14.2733 13.5509 14.4262 13.2213 14.5544C12.9728 14.6513 12.5986 14.7658 11.9104 14.7971C11.1663 14.8313 10.9428 14.8381 9.05774 14.8381C7.17266 14.8381 6.94977 14.8313 6.20592 14.7971ZM6.14747 2.04272C5.396 2.07692 4.88251 2.19601 4.43406 2.3704C3.96964 2.55049 3.57649 2.7921 3.18361 3.18412C2.79074 3.57614 2.5496 3.96968 2.3694 4.43382C2.19491 4.88228 2.07575 5.39519 2.04153 6.1462C2.00674 6.89841 1.99878 7.13889 1.99878 9.05473C1.99878 10.9706 2.00674 11.211 2.04153 11.9633C2.07575 12.7143 2.19491 13.2272 2.3694 13.6756C2.5496 14.1395 2.79079 14.5335 3.18361 14.9253C3.57643 15.3172 3.96964 15.5585 4.43406 15.7391C4.88335 15.9134 5.396 16.0325 6.14747 16.0667C6.90052 16.1009 7.14075 16.1095 9.05774 16.1095C10.9747 16.1095 11.2154 16.1015 11.968 16.0667C12.7195 16.0325 13.2327 15.9134 13.6814 15.7391C14.1456 15.5585 14.539 15.3174 14.9319 14.9253C15.3247 14.5333 15.5654 14.1395 15.7461 13.6756C15.9206 13.2272 16.0403 12.7143 16.074 11.9633C16.1082 11.2105 16.1161 10.9706 16.1161 9.05473C16.1161 7.13889 16.1082 6.89841 16.074 6.1462C16.0397 5.39513 15.9206 4.882 15.7461 4.43382C15.5654 3.96996 15.3241 3.57676 14.9319 3.18412C14.5396 2.79148 14.1456 2.55049 13.682 2.3704C13.2327 2.19601 12.7195 2.07636 11.9686 2.04272C11.2159 2.00852 10.9753 2 9.05831 2C7.14132 2 6.90052 2.00796 6.14747 2.04272Z" fill="url(#paint0_linear_152_10740)"/>
<defs>
<linearGradient id="paint0_linear_152_10740" x1="15.8448" y1="16.1095" x2="1.73535" y2="1.9921" gradientUnits="userSpaceOnUse">
<stop stop-color="#FBE18A"/>
<stop offset="0.21" stop-color="#FCBB45"/>
<stop offset="0.38" stop-color="#F75274"/>
<stop offset="0.52" stop-color="#D53692"/>
<stop offset="0.74" stop-color="#8F39CE"/>
<stop offset="1" stop-color="#5B4FE9"/>
</linearGradient>
</defs>
</svg>
