<svg width="83" height="35" viewBox="0 0 83 35" fill="none" xmlns="http://www.w3.org/2000/svg">
<path d="M47.82 15.1987C48.1466 15.2163 48.435 15.2437 48.7223 15.2448C50.3338 15.2525 51.9466 15.2558 53.5581 15.258C54.0874 15.2591 54.2006 15.1063 54.1887 14.6149C54.1649 13.6641 54.1815 12.7132 54.1815 11.7007C57.9184 13.7025 61.6195 15.6845 65.3706 17.6941C61.6314 19.6695 57.9279 21.6251 54.1732 23.6093C54.1732 23.462 54.1732 23.3741 54.1732 23.2851C54.1732 22.4001 54.1744 21.5141 54.1732 20.6292C54.1732 20.2257 54.0909 20.1521 53.6451 20.1521C49.6246 20.1499 45.6029 20.1477 41.5823 20.1466C41.0507 20.1466 40.8517 20.2774 40.7158 20.7633C40.3594 22.0341 39.8933 23.2653 39.2568 24.4415C37.6286 27.4503 35.16 29.7104 32.0179 31.3703C29.597 32.6488 27.0223 33.5513 24.2629 33.9647C22.761 34.19 21.2472 34.2714 19.7215 34.2021C16.7511 34.068 13.8748 33.5491 11.1571 32.4147C7.32612 30.8163 4.25201 28.4034 2.09572 25.0516C1.02652 23.3895 0.374508 21.5834 0.153992 19.6596C0.059826 18.8318 -0.0212284 17.9953 0.0049951 17.1653C0.101545 14.1917 1.09446 11.482 3.01951 9.0888C6.19612 5.13795 10.4133 2.68652 15.6461 1.72245C17.6784 1.34869 19.7322 1.19039 21.7967 1.28932C26.3906 1.50918 30.5625 2.82504 34.1849 5.48972C35.6523 6.56923 36.9003 7.8444 38.0088 9.2372C38.0446 9.28227 38.0755 9.33285 38.122 9.3999C36.5296 10.253 34.9526 11.0983 33.3684 11.947C32.8988 11.4468 32.4554 10.9521 31.9845 10.4805C29.9796 8.4699 27.6028 7.00894 24.7004 6.34277C23.5299 6.07455 22.3379 5.96242 21.134 5.90306C19.3853 5.81621 17.6653 5.96351 15.9799 6.38894C12.8819 7.16944 10.4193 8.81728 8.43704 11.1181C7.22003 12.5318 6.4226 14.1159 6.11269 15.9022C5.93389 16.9311 5.94819 17.9634 6.10196 18.9923C6.32009 20.4511 6.78377 21.8362 7.57524 23.1213C8.71358 24.9681 10.3394 26.3653 12.2883 27.4624C14.1752 28.5243 16.2135 29.2146 18.4091 29.4257C22.581 29.8269 26.4633 29.108 29.8449 26.6907C31.4207 25.5639 32.7629 24.2282 33.5937 22.532C33.9144 21.878 34.0777 21.159 34.3065 20.4676C34.3363 20.3763 34.3256 20.273 34.3351 20.1444C31.2491 20.1444 28.1845 20.1444 25.1045 20.1444C25.1045 18.524 25.1045 16.9333 25.1045 15.313C25.344 15.2965 25.5753 15.2668 25.8077 15.2668C30.87 15.2635 35.9324 15.2635 40.9947 15.2624C41.6002 15.2624 41.7433 15.1492 41.878 14.5985C42.431 12.3207 43.2928 10.1551 44.6338 8.16429C46.9391 4.7455 50.2313 2.49744 54.3401 1.22556C56.4153 0.583577 58.5489 0.204323 60.7327 0.0592165C67.1574 -0.366209 72.7025 1.50479 77.3977 5.53809C80.1225 7.87958 81.9594 10.7169 82.6376 14.1137C83.7485 19.6739 82.3193 24.6053 78.157 28.809C75.8791 31.1087 73.1876 32.8555 69.9895 33.9064C68.1372 34.5154 66.2253 34.8419 64.2621 34.9474C62.4682 35.0442 60.679 35.0178 58.8994 34.7804C54.6512 34.2153 50.8881 32.6664 47.6924 30.005C45.436 28.1263 43.8054 25.842 42.6825 23.2444C42.6122 23.0817 42.5562 22.9146 42.4954 22.7486C42.4871 22.7266 42.4894 22.7013 42.4835 22.6442C42.6456 22.6354 42.8029 22.6189 42.9603 22.6189C44.7447 22.6189 46.5279 22.6233 48.3122 22.6233C48.609 22.6233 48.8427 22.7222 48.9964 22.9564C51.378 26.5686 54.8836 28.6309 59.3607 29.3619C62.2035 29.8258 65.0059 29.7236 67.7248 28.7793C70.7679 27.7229 73.3068 26.041 75.0888 23.4862C76.1664 21.9417 76.7373 20.2323 76.9245 18.4086C77.2832 14.9271 75.9339 12.036 73.3414 9.57139C71.191 7.52671 68.5425 6.38014 65.5375 5.86348C63.9724 5.59525 62.3919 5.45124 60.8101 5.57766C55.7526 5.9811 51.6593 7.92136 49.006 12.058C48.4803 12.8781 48.0679 13.7509 47.8569 14.6919C47.8212 14.8491 47.8319 15.0151 47.82 15.1987Z" fill="url(#paint0_linear_144_10293)"/>
<defs>
<linearGradient id="paint0_linear_144_10293" x1="0" y1="18.1481" x2="83" y2="18.1481" gradientUnits="userSpaceOnUse">
<stop stop-color="#2674B3"/>
<stop offset="1" stop-color="#10396B"/>
</linearGradient>
</defs>
</svg>
