<svg width="36" height="36" viewBox="0 0 36 36" fill="none" xmlns="http://www.w3.org/2000/svg">
<rect width="36" height="36" rx="10" fill="#EE854C"/>
<g clip-path="url(#clip0_301_12265)">
<path d="M18 8.83337V27.1667" stroke="white" stroke-width="2" stroke-linecap="round" stroke-linejoin="round"/>
<path d="M22.1667 12.1666H15.9167C15.1431 12.1666 14.4013 12.4739 13.8543 13.0209C13.3073 13.5679 13 14.3097 13 15.0833C13 15.8568 13.3073 16.5987 13.8543 17.1457C14.4013 17.6927 15.1431 18 15.9167 18H20.0833C20.8569 18 21.5987 18.3073 22.1457 18.8542C22.6927 19.4012 23 20.1431 23 20.9166C23 21.6902 22.6927 22.432 22.1457 22.979C21.5987 23.526 20.8569 23.8333 20.0833 23.8333H13" stroke="white" stroke-width="2" stroke-linecap="round" stroke-linejoin="round"/>
</g>
<defs>
<clipPath id="clip0_301_12265">
<rect width="20" height="20" fill="white" transform="translate(8 8)"/>
</clipPath>
</defs>
</svg>
