<svg width="30" height="30" viewBox="0 0 30 30" fill="none" xmlns="http://www.w3.org/2000/svg">
<g clip-path="url(#clip0_122_11910)">
<path d="M15.3249 0.603566C10.2189 0.590173 5.72556 3.23192 3.15748 7.22299C3.04364 7.40044 3.17087 7.63482 3.38181 7.63482H5.73561C5.89632 7.63482 6.04699 7.5645 6.14744 7.44062C6.38181 7.15602 6.63293 6.88147 6.89744 6.62031C7.98896 5.53214 9.25793 4.67499 10.6709 4.07901C12.1307 3.46294 13.6843 3.14821 15.2881 3.14821C16.8919 3.14821 18.4454 3.45959 19.9053 4.07901C21.3182 4.67499 22.5872 5.53214 23.6787 6.62031C24.7702 7.70848 25.624 8.97745 26.2233 10.387C26.8428 11.8469 27.1541 13.3971 27.1541 15.0009C27.1541 16.6047 26.8394 18.1549 26.2233 19.6147C25.6273 21.0243 24.7702 22.2933 23.6787 23.3815C22.5872 24.4696 21.3182 25.3268 19.9053 25.9228C18.4443 26.5398 16.874 26.8564 15.2881 26.8536C13.6843 26.8536 12.1307 26.5388 10.6709 25.9228C9.2607 25.3274 7.97927 24.4644 6.89744 23.3815C6.63293 23.117 6.38516 22.8424 6.14744 22.5612C6.04699 22.4373 5.89297 22.367 5.73561 22.367H3.38181C3.17087 22.367 3.04029 22.6013 3.15748 22.7788C5.72221 26.7598 10.1954 29.3982 15.2881 29.3982C23.1965 29.3982 29.6184 23.0333 29.6988 15.1482C29.7791 7.13593 23.3472 0.623656 15.3249 0.603566ZM11.0834 18.7509V16.2062H0.569981C0.42266 16.2062 0.302124 16.0857 0.302124 15.9384V14.0634C0.302124 13.9161 0.42266 13.7955 0.569981 13.7955H11.0834V11.2509C11.0834 11.0266 11.3445 10.8993 11.5186 11.04L16.2698 14.79C16.3018 14.815 16.3277 14.847 16.3455 14.8836C16.3633 14.9201 16.3725 14.9602 16.3725 15.0009C16.3725 15.0415 16.3633 15.0817 16.3455 15.1182C16.3277 15.1548 16.3018 15.1868 16.2698 15.2118L11.5186 18.9618C11.3445 19.0991 11.0834 18.9752 11.0834 18.7509Z" fill="#2E70DB"/>
</g>
<defs>
<clipPath id="clip0_122_11910">
<rect width="30" height="30" fill="white"/>
</clipPath>
</defs>
</svg>
