<svg width="115" height="21" viewBox="0 0 115 21" fill="none" xmlns="http://www.w3.org/2000/svg">
<path d="M42.47 8.07C42.1993 7.50067 41.8073 7.062 41.294 6.754C40.7807 6.43667 40.1833 6.278 39.502 6.278C38.8207 6.278 38.2047 6.43667 37.654 6.754C37.1127 7.062 36.6833 7.51 36.366 8.098C36.058 8.67667 35.904 9.34867 35.904 10.114C35.904 10.8793 36.058 11.5513 36.366 12.13C36.6833 12.7087 37.1127 13.1567 37.654 13.474C38.2047 13.782 38.8207 13.936 39.502 13.936C40.454 13.936 41.238 13.6513 41.854 13.082C42.47 12.5127 42.8293 11.7427 42.932 10.772H39.04V9.736H44.29V10.716C44.2153 11.5187 43.9633 12.256 43.534 12.928C43.1047 13.5907 42.54 14.118 41.84 14.51C41.14 14.8927 40.3607 15.084 39.502 15.084C38.5967 15.084 37.7707 14.874 37.024 14.454C36.2773 14.0247 35.6847 13.432 35.246 12.676C34.8167 11.92 34.602 11.066 34.602 10.114C34.602 9.162 34.8167 8.308 35.246 7.552C35.6847 6.78667 36.2773 6.194 37.024 5.774C37.7707 5.34467 38.5967 5.13 39.502 5.13C40.538 5.13 41.4527 5.38667 42.246 5.9C43.0487 6.41333 43.632 7.13667 43.996 8.07H42.47ZM49.3205 15.126C48.6018 15.126 47.9485 14.9627 47.3605 14.636C46.7818 14.3093 46.3245 13.8473 45.9885 13.25C45.6618 12.6433 45.4985 11.9433 45.4985 11.15C45.4985 10.366 45.6665 9.67533 46.0025 9.078C46.3478 8.47133 46.8145 8.00933 47.4025 7.692C47.9905 7.36533 48.6485 7.202 49.3765 7.202C50.1045 7.202 50.7625 7.36533 51.3505 7.692C51.9385 8.00933 52.4005 8.46667 52.7365 9.064C53.0818 9.66133 53.2545 10.3567 53.2545 11.15C53.2545 11.9433 53.0772 12.6433 52.7225 13.25C52.3772 13.8473 51.9058 14.3093 51.3085 14.636C50.7112 14.9627 50.0485 15.126 49.3205 15.126ZM49.3205 14.006C49.7778 14.006 50.2072 13.8987 50.6085 13.684C51.0098 13.4693 51.3318 13.1473 51.5745 12.718C51.8265 12.2887 51.9525 11.766 51.9525 11.15C51.9525 10.534 51.8312 10.0113 51.5885 9.582C51.3458 9.15267 51.0285 8.83533 50.6365 8.63C50.2445 8.41533 49.8198 8.308 49.3625 8.308C48.8958 8.308 48.4665 8.41533 48.0745 8.63C47.6918 8.83533 47.3838 9.15267 47.1505 9.582C46.9172 10.0113 46.8005 10.534 46.8005 11.15C46.8005 11.7753 46.9125 12.3027 47.1365 12.732C47.3698 13.1613 47.6778 13.4833 48.0605 13.698C48.4432 13.9033 48.8632 14.006 49.3205 14.006ZM58.186 10.114C58.186 9.162 58.4007 8.308 58.83 7.552C59.2593 6.78667 59.8427 6.18933 60.58 5.76C61.3267 5.33067 62.1527 5.116 63.058 5.116C64.122 5.116 65.0507 5.37267 65.844 5.886C66.6373 6.39933 67.216 7.12733 67.58 8.07H66.054C65.7833 7.482 65.3913 7.02933 64.878 6.712C64.374 6.39467 63.7673 6.236 63.058 6.236C62.3767 6.236 61.7653 6.39467 61.224 6.712C60.6827 7.02933 60.258 7.482 59.95 8.07C59.642 8.64867 59.488 9.33 59.488 10.114C59.488 10.8887 59.642 11.57 59.95 12.158C60.258 12.7367 60.6827 13.1847 61.224 13.502C61.7653 13.8193 62.3767 13.978 63.058 13.978C63.7673 13.978 64.374 13.824 64.878 13.516C65.3913 13.1987 65.7833 12.746 66.054 12.158H67.58C67.216 13.0913 66.6373 13.8147 65.844 14.328C65.0507 14.832 64.122 15.084 63.058 15.084C62.1527 15.084 61.3267 14.874 60.58 14.454C59.8427 14.0247 59.2593 13.432 58.83 12.676C58.4007 11.92 58.186 11.066 58.186 10.114ZM73.2844 7.188C73.8631 7.188 74.3858 7.314 74.8524 7.566C75.3191 7.80867 75.6831 8.17733 75.9444 8.672C76.2151 9.16667 76.3504 9.76867 76.3504 10.478V15H75.0904V10.66C75.0904 9.89467 74.8991 9.31133 74.5164 8.91C74.1338 8.49933 73.6111 8.294 72.9484 8.294C72.2764 8.294 71.7398 8.504 71.3384 8.924C70.9464 9.344 70.7504 9.95533 70.7504 10.758V15H69.4764V4.64H70.7504V8.42C71.0024 8.028 71.3478 7.72467 71.7864 7.51C72.2344 7.29533 72.7338 7.188 73.2844 7.188ZM85.4315 10.87C85.4315 11.1127 85.4175 11.3693 85.3895 11.64H79.2575C79.3042 12.396 79.5608 12.9887 80.0275 13.418C80.5035 13.838 81.0775 14.048 81.7495 14.048C82.3002 14.048 82.7575 13.922 83.1215 13.67C83.4948 13.4087 83.7562 13.0633 83.9055 12.634H85.2775C85.0722 13.3713 84.6615 13.9733 84.0455 14.44C83.4295 14.8973 82.6642 15.126 81.7495 15.126C81.0215 15.126 80.3682 14.9627 79.7895 14.636C79.2202 14.3093 78.7722 13.8473 78.4455 13.25C78.1188 12.6433 77.9555 11.9433 77.9555 11.15C77.9555 10.3567 78.1142 9.66133 78.4315 9.064C78.7488 8.46667 79.1922 8.00933 79.7615 7.692C80.3402 7.36533 81.0028 7.202 81.7495 7.202C82.4775 7.202 83.1215 7.36067 83.6815 7.678C84.2415 7.99533 84.6708 8.434 84.9695 8.994C85.2775 9.54467 85.4315 10.17 85.4315 10.87ZM84.1155 10.604C84.1155 10.1187 84.0082 9.70333 83.7935 9.358C83.5788 9.00333 83.2848 8.73733 82.9115 8.56C82.5475 8.37333 82.1415 8.28 81.6935 8.28C81.0495 8.28 80.4988 8.48533 80.0415 8.896C79.5935 9.30667 79.3368 9.876 79.2715 10.604H84.1155ZM86.6372 11.15C86.6372 10.3567 86.7958 9.666 87.1132 9.078C87.4305 8.48067 87.8692 8.01867 88.4292 7.692C88.9985 7.36533 89.6472 7.202 90.3752 7.202C91.3178 7.202 92.0925 7.43067 92.6992 7.888C93.3152 8.34533 93.7212 8.98 93.9172 9.792H92.5452C92.4145 9.32533 92.1578 8.95667 91.7752 8.686C91.4018 8.41533 90.9352 8.28 90.3752 8.28C89.6472 8.28 89.0592 8.532 88.6112 9.036C88.1632 9.53067 87.9392 10.2353 87.9392 11.15C87.9392 12.074 88.1632 12.788 88.6112 13.292C89.0592 13.796 89.6472 14.048 90.3752 14.048C90.9352 14.048 91.4018 13.9173 91.7752 13.656C92.1485 13.3947 92.4052 13.0213 92.5452 12.536H93.9172C93.7118 13.32 93.3012 13.95 92.6852 14.426C92.0692 14.8927 91.2992 15.126 90.3752 15.126C89.6472 15.126 88.9985 14.9627 88.4292 14.636C87.8692 14.3093 87.4305 13.8473 87.1132 13.25C86.7958 12.6527 86.6372 11.9527 86.6372 11.15ZM99.9011 15L96.8911 11.612V15H95.6171V4.64H96.8911V10.73L99.8451 7.328H101.623L98.0111 11.15L101.637 15H99.9011ZM103.48 6.082C103.237 6.082 103.032 5.998 102.864 5.83C102.696 5.662 102.612 5.45667 102.612 5.214C102.612 4.97133 102.696 4.766 102.864 4.598C103.032 4.43 103.237 4.346 103.48 4.346C103.713 4.346 103.909 4.43 104.068 4.598C104.236 4.766 104.32 4.97133 104.32 5.214C104.32 5.45667 104.236 5.662 104.068 5.83C103.909 5.998 103.713 6.082 103.48 6.082ZM104.096 7.328V15H102.822V7.328H104.096ZM110.005 7.188C110.939 7.188 111.695 7.47267 112.273 8.042C112.852 8.602 113.141 9.414 113.141 10.478V15H111.881V10.66C111.881 9.89467 111.69 9.31133 111.307 8.91C110.925 8.49933 110.402 8.294 109.739 8.294C109.067 8.294 108.531 8.504 108.129 8.924C107.737 9.344 107.541 9.95533 107.541 10.758V15H106.267V7.328H107.541V8.42C107.793 8.028 108.134 7.72467 108.563 7.51C109.002 7.29533 109.483 7.188 110.005 7.188Z" fill="#1288A4"/>
<path d="M16.132 10.211C16.2422 10.217 16.3395 10.2264 16.4364 10.2268C16.9801 10.2294 17.5242 10.2306 18.0678 10.2313C18.2463 10.2317 18.2845 10.1793 18.2805 10.0108C18.2725 9.68482 18.2781 9.3588 18.2781 9.01168C19.5387 9.69801 20.7873 10.3776 22.0527 11.0665C20.7913 11.7438 19.542 12.4143 18.2753 13.0946C18.2753 13.0441 18.2753 13.014 18.2753 12.9834C18.2753 12.68 18.2757 12.3763 18.2753 12.0729C18.2753 11.9345 18.2476 11.9093 18.0972 11.9093C16.7408 11.9085 15.3841 11.9078 14.0278 11.9074C13.8484 11.9074 13.7813 11.9523 13.7354 12.1188C13.6152 12.5545 13.458 12.9767 13.2433 13.3799C12.694 14.4115 11.8612 15.1864 10.8012 15.7555C9.98454 16.1939 9.11597 16.5033 8.18508 16.645C7.67842 16.7223 7.16774 16.7502 6.65303 16.7264C5.65097 16.6805 4.68067 16.5026 3.76385 16.1136C2.47146 15.5656 1.43441 14.7383 0.706991 13.5891C0.346296 13.0193 0.12634 12.4 0.0519492 11.7404C0.0201823 11.4566 -0.00716138 11.1698 0.00168509 10.8852C0.0342562 9.86573 0.369216 8.93667 1.01863 8.11616C2.09026 6.76158 3.51293 5.92109 5.27821 5.59055C5.96381 5.46241 6.65665 5.40813 7.35311 5.44205C8.90285 5.51743 10.3102 5.96858 11.5323 6.88219C12.0273 7.25231 12.4483 7.68951 12.8222 8.16704C12.8343 8.18249 12.8448 8.19983 12.8604 8.22282C12.3232 8.5153 11.7912 8.80513 11.2568 9.0961C11.0984 8.92461 10.9488 8.75501 10.79 8.59332C10.1136 7.90396 9.3118 7.40307 8.33266 7.17466C7.93778 7.0827 7.53567 7.04426 7.12953 7.02391C6.53964 6.99413 5.95939 7.04463 5.3908 7.19049C4.34571 7.45809 3.51494 8.02307 2.84623 8.81192C2.43567 9.29661 2.16666 9.83972 2.06211 10.4522C2.00179 10.805 2.00662 11.1589 2.05849 11.5117C2.13208 12.0118 2.2885 12.4867 2.5555 12.9273C2.93952 13.5605 3.488 14.0395 4.14546 14.4157C4.782 14.7798 5.46961 15.0164 6.21031 15.0888C7.6177 15.2264 8.92738 14.9799 10.0682 14.1511C10.5998 13.7648 11.0525 13.3068 11.3328 12.7253C11.441 12.501 11.4961 12.2545 11.5733 12.0175C11.5833 11.9862 11.5797 11.9507 11.5829 11.9066C10.5419 11.9066 9.50803 11.9066 8.46897 11.9066C8.46897 11.3511 8.46897 10.8057 8.46897 10.2502C8.5498 10.2445 8.62781 10.2343 8.70622 10.2343C10.414 10.2332 12.1218 10.2332 13.8295 10.2328C14.0338 10.2328 14.0821 10.194 14.1275 10.0052C14.3141 9.22425 14.6048 8.48175 15.0572 7.79919C15.8349 6.62703 16.9455 5.85627 18.3316 5.42019C19.0317 5.20008 19.7515 5.07005 20.4881 5.0203C22.6555 4.87444 24.5261 5.51593 26.1101 6.89877C27.0293 7.70157 27.6489 8.67435 27.8777 9.83897C28.2525 11.7453 27.7704 13.4361 26.3662 14.8774C25.5978 15.6658 24.6898 16.2647 23.6109 16.6251C22.986 16.8339 22.3411 16.9458 21.6788 16.982C21.0736 17.0151 20.47 17.0061 19.8697 16.9247C18.4365 16.731 17.1671 16.1999 16.089 15.2874C15.3278 14.6433 14.7777 13.8601 14.3989 12.9695C14.3752 12.9137 14.3563 12.8564 14.3358 12.7995C14.333 12.792 14.3338 12.7833 14.3318 12.7637C14.3865 12.7607 14.4395 12.755 14.4926 12.755C15.0946 12.755 15.6961 12.7566 16.2981 12.7566C16.3982 12.7566 16.477 12.7905 16.5289 12.8708C17.3323 14.1092 18.515 14.8163 20.0253 15.067C20.9843 15.226 21.9297 15.191 22.8469 14.8672C23.8735 14.505 24.73 13.9283 25.3312 13.0524C25.6947 12.5229 25.8873 11.9368 25.9504 11.3115C26.0715 10.1179 25.6163 9.12663 24.7417 8.28162C24.0163 7.58059 23.1228 7.18748 22.109 7.01033C21.5811 6.91837 21.0479 6.869 20.5143 6.91234C18.8081 7.05066 17.4272 7.71589 16.5321 9.13417C16.3548 9.41534 16.2157 9.71459 16.1445 10.0372C16.1324 10.0911 16.1361 10.148 16.132 10.211Z" fill="#1288A4"/>
</svg>
