<svg width="44" height="44" viewBox="0 0 44 44" fill="none" xmlns="http://www.w3.org/2000/svg">
<path d="M25.3503 20.4357C25.5235 20.4451 25.6764 20.4596 25.8287 20.4602C26.683 20.4643 27.538 20.466 28.3923 20.4672C28.6728 20.4678 28.7329 20.3867 28.7265 20.1261C28.7139 19.6218 28.7227 19.1175 28.7227 18.5806C30.7037 19.6422 32.6657 20.6934 34.6543 21.7592C32.6721 22.8069 30.7088 23.844 28.7183 24.8964C28.7183 24.8183 28.7183 24.7716 28.7183 24.7244C28.7183 24.2551 28.719 23.7852 28.7183 23.3158C28.7183 23.1019 28.6747 23.0628 28.4384 23.0628C26.307 23.0616 24.175 23.0605 22.0437 23.0599C21.7618 23.0599 21.6563 23.1293 21.5843 23.387C21.3953 24.0609 21.1483 24.7139 20.8108 25.3377C19.9477 26.9334 18.639 28.1321 16.9734 29.0125C15.69 29.6905 14.3251 30.1692 12.8623 30.3884C12.0661 30.5079 11.2636 30.5511 10.4548 30.5143C8.88009 30.4432 7.35534 30.168 5.91462 29.5664C3.88373 28.7186 2.25408 27.4389 1.11099 25.6613C0.54418 24.7798 0.198534 23.8219 0.0816344 22.8016C0.031715 22.3626 -0.0112536 21.9189 0.00264801 21.4787C0.0538312 19.9017 0.580197 18.4645 1.6007 17.1953C3.28469 15.0999 5.52032 13.7998 8.29433 13.2885C9.3717 13.0903 10.4604 13.0063 11.5549 13.0588C13.9902 13.1754 16.2018 13.8733 18.1221 15.2865C18.9 15.859 19.5616 16.5353 20.1492 17.274C20.1682 17.2979 20.1846 17.3247 20.2093 17.3603C19.3651 17.8127 18.5291 18.2611 17.6893 18.7112C17.4403 18.4459 17.2053 18.1835 16.9557 17.9334C15.8928 16.8671 14.6328 16.0922 13.0942 15.7389C12.4737 15.5967 11.8418 15.5372 11.2036 15.5057C10.2766 15.4597 9.36475 15.5378 8.47126 15.7634C6.82897 16.1774 5.52348 17.0513 4.47265 18.2716C3.82749 19.0213 3.40475 19.8614 3.24046 20.8089C3.14568 21.3546 3.15326 21.902 3.23477 22.4477C3.35041 23.2214 3.59621 23.956 4.01579 24.6375C4.61925 25.617 5.48115 26.358 6.51429 26.9399C7.51457 27.5031 8.59511 27.8692 9.75905 27.9811C11.9707 28.1939 14.0287 27.8126 15.8214 26.5306C16.6568 25.933 17.3683 25.2246 17.8087 24.325C17.9787 23.9781 18.0653 23.5968 18.1866 23.2301C18.2024 23.1817 18.1967 23.1269 18.2018 23.0587C16.5658 23.0587 14.9412 23.0587 13.3084 23.0587C13.3084 22.1993 13.3084 21.3557 13.3084 20.4964C13.4354 20.4876 13.558 20.4719 13.6812 20.4719C16.3648 20.4701 19.0485 20.4701 21.7321 20.4695C22.0531 20.4695 22.129 20.4095 22.2004 20.1174C22.4936 18.9094 22.9504 17.7608 23.6613 16.705C24.8834 14.8918 26.6287 13.6995 28.8068 13.025C29.9069 12.6845 31.038 12.4834 32.1956 12.4064C35.6015 12.1808 38.5411 13.1731 41.0301 15.3122C42.4746 16.554 43.4483 18.0588 43.8079 19.8603C44.3968 22.8092 43.6392 25.4246 41.4326 27.6541C40.2251 28.8737 38.7982 29.8001 37.1029 30.3575C36.1209 30.6805 35.1074 30.8537 34.0666 30.9096C33.1157 30.9609 32.1672 30.9469 31.2238 30.821C28.9717 30.5213 26.9768 29.6999 25.2827 28.2884C24.0866 27.292 23.2221 26.0805 22.6269 24.7028C22.5896 24.6165 22.5599 24.5279 22.5277 24.4399C22.5233 24.4282 22.5245 24.4148 22.5214 24.3845C22.6073 24.3798 22.6907 24.3711 22.7741 24.3711C23.7201 24.3711 24.6654 24.3734 25.6113 24.3734C25.7687 24.3734 25.8925 24.4259 25.974 24.5501C27.2365 26.4659 29.0949 27.5596 31.4683 27.9473C32.9754 28.1933 34.4609 28.1391 35.9023 27.6383C37.5155 27.078 38.8614 26.186 39.8061 24.8311C40.3773 24.0119 40.68 23.1054 40.7792 22.1381C40.9694 20.2917 40.2541 18.7584 38.8798 17.4513C37.7398 16.3668 36.3358 15.7588 34.7428 15.4847C33.9131 15.3425 33.0752 15.2661 32.2367 15.3332C29.5556 15.5471 27.3857 16.5761 25.9791 18.77C25.7004 19.205 25.4818 19.6679 25.3699 20.1669C25.351 20.2503 25.3567 20.3384 25.3503 20.4357Z" fill="url(#paint0_linear_243_29294)"/>
<defs>
<linearGradient id="paint0_linear_243_29294" x1="0" y1="22" x2="44" y2="22" gradientUnits="userSpaceOnUse">
<stop stop-color="#2674B3"/>
<stop offset="1" stop-color="#10396B"/>
</linearGradient>
</defs>
</svg>
